{
  "asset": {
    "version": "2.0",
    "generator": "gltfeditor.com"
  },
  "buffers": [
    {
      "uri": "OSG_Scene.bin",
      "byteLength": 7340364
    }
  ],
  "bufferViews": [
    {
      "buffer": 0,
      "byteLength": 242760,
      "byteOffset": 226060,
      "target": 34962,
      "byteStride": 12
    },
    {
      "buffer": 0,
      "byteLength": 161840,
      "byteOffset": 468820,
      "target": 34962,
      "byteStride": 16
    },
    {
      "buffer": 0,
      "byteLength": 80920,
      "byteOffset": 145140,
      "target": 34962,
      "byteStride": 8
    },
    {
      "buffer": 0,
      "byteLength": 145140,
      "byteOffset": 0,
      "target": 34963
    }
  ],
  "accessors": [
    {
      "bufferView": 0,
      "byteOffset": 192,
      "componentType": 5126,
      "count": 16,
      "max": [
        0,
        0,
        1
      ],
      "min": [
        -1,
        0,
        0
      ],
      "type": "VEC3"
    },
    {
      "bufferView": 0,
      "byteOffset": 0,
      "componentType": 5126,
      "count": 16,
      "max": [
        3.6251299381256104,
        2.0499672889709473,
        -7.4108195304870605
      ],
      "min": [
        2.9634952545166016,
        1.4879035949707031,
        -7.870338439941406
      ],
      "type": "VEC3"
    },
    {
      "bufferView": 1,
      "byteOffset": 0,
      "componentType": 5126,
      "count": 16,
      "max": [
        1,
        0,
        1,
        1
      ],
      "min": [
        0,
        0,
        0,
        1
      ],
      "type": "VEC4"
    },
    {
      "bufferView": 2,
      "byteOffset": 0,
      "componentType": 5126,
      "count": 16,
      "max": [
        1,
        0.9464645981788635
      ],
      "min": [
        0,
        0
      ],
      "type": "VEC2"
    },
    {
      "bufferView": 3,
      "byteOffset": 0,
      "componentType": 5125,
      "normalized": false,
      "count": 24,
      "max": [
        15
      ],
      "min": [
        0
      ],
      "type": "SCALAR"
    },
    {
      "bufferView": 0,
      "byteOffset": 6336,
      "componentType": 5126,
      "count": 496,
      "max": [
        0.9805203676223755,
        1,
        0.9993839859962463
      ],
      "min": [
        -0.9981909394264221,
        -0.9996001124382019,
        -0.9996833801269531
      ],
      "type": "VEC3"
    },
    {
      "bufferView": 0,
      "byteOffset": 384,
      "componentType": 5126,
      "count": 496,
      "max": [
        3.4518022537231445,
        3.6913700103759766,
        -7.71843957901001
      ],
      "min": [
        2.96115779876709,
        2.8291921615600586,
        -8.27622127532959
      ],
      "type": "VEC3"
    },
    {
      "bufferView": 1,
      "byteOffset": 256,
      "componentType": 5126,
      "count": 496,
      "max": [
        0.9975601434707642,
        0.9985510110855103,
        0.9992632865905762,
        1
      ],
      "min": [
        -0.9959769248962402,
        -1,
        -0.9992204308509827,
        1
      ],
      "type": "VEC4"
    },
    {
      "bufferView": 2,
      "byteOffset": 128,
      "componentType": 5126,
      "count": 496,
      "max": [
        0.9745559692382812,
        0.9935448169708252
      ],
      "min": [
        0.02699524164199829,
        0.02410024404525757
      ],
      "type": "VEC2"
    },
    {
      "bufferView": 3,
      "byteOffset": 96,
      "componentType": 5125,
      "normalized": false,
      "count": 720,
      "max": [
        495
      ],
      "min": [
        0
      ],
      "type": "SCALAR"
    },
    {
      "bufferView": 0,
      "byteOffset": 23148,
      "componentType": 5126,
      "count": 905,
      "max": [
        1,
        1,
        1
      ],
      "min": [
        -1,
        -1,
        -1
      ],
      "type": "VEC3"
    },
    {
      "bufferView": 0,
      "byteOffset": 12288,
      "componentType": 5126,
      "count": 905,
      "max": [
        3.7381839752197266,
        4.179409980773926,
        -6.892394065856934
      ],
      "min": [
        1.8757400512695312,
        -0.005762937944382429,
        -9.181304931640625
      ],
      "type": "VEC3"
    },
    {
      "bufferView": 1,
      "byteOffset": 8192,
      "componentType": 5126,
      "count": 905,
      "max": [
        1,
        0.9955633282661438,
        0.9999994039535522,
        1
      ],
      "min": [
        -1,
        -0.9955301284790039,
        -0.9999994039535522,
        -1
      ],
      "type": "VEC4"
    },
    {
      "bufferView": 2,
      "byteOffset": 4096,
      "componentType": 5126,
      "count": 905,
      "max": [
        0.9922770857810974,
        0.993507981300354
      ],
      "min": [
        0.00822026189416647,
        0.007847849279642105
      ],
      "type": "VEC2"
    },
    {
      "bufferView": 3,
      "byteOffset": 2976,
      "componentType": 5125,
      "normalized": false,
      "count": 1509,
      "max": [
        904
      ],
      "min": [
        0
      ],
      "type": "SCALAR"
    },
    {
      "bufferView": 0,
      "byteOffset": 119088,
      "componentType": 5126,
      "count": 16,
      "max": [
        1,
        0,
        1
      ],
      "min": [
        -1,
        0,
        -1
      ],
      "type": "VEC3"
    },
    {
      "bufferView": 0,
      "byteOffset": 118896,
      "componentType": 5126,
      "count": 16,
      "max": [
        3.706902503967285,
        3.6457457542419434,
        -7.35476541519165
      ],
      "min": [
        1.9101402759552002,
        1.620924472808838,
        -9.145727157592773
      ],
      "type": "VEC3"
    },
    {
      "bufferView": 1,
      "byteOffset": 79264,
      "componentType": 5126,
      "count": 16,
      "max": [
        1,
        0,
        1,
        1
      ],
      "min": [
        -1,
        0,
        -1,
        1
      ],
      "type": "VEC4"
    },
    {
      "bufferView": 2,
      "byteOffset": 39632,
      "componentType": 5126,
      "count": 16,
      "max": [
        0.8430960178375244,
        0.9363914728164673
      ],
      "min": [
        0.07067090272903442,
        0.06360852718353271
      ],
      "type": "VEC2"
    },
    {
      "bufferView": 3,
      "byteOffset": 66276,
      "componentType": 5125,
      "normalized": false,
      "count": 24,
      "max": [
        15
      ],
      "min": [
        0
      ],
      "type": "SCALAR"
    }
  ],
  "scene": 0,
  "scenes": [
    {
      "nodes": [
        11
      ],
      "name": "OSG_Scene"
    }
  ],
  "nodes": [
    {
      "mesh": 0
    },
    {
      "children": [
        0
      ]
    },
    {
      "mesh": 1
    },
    {
      "children": [
        2
      ]
    },
    {
      "mesh": 2
    },
    {
      "children": [
        4
      ]
    },
    {
      "mesh": 3
    },
    {
      "children": [
        6
      ]
    },
    {
      "children": [
        1,
        3,
        5,
        7
      ]
    },
    {
      "children": [
        8
      ],
      "matrix": [
        1,
        0,
        0,
        0,
        0,
        3.422854177870249e-8,
        0.9999999403953552,
        0,
        0,
        -0.9999999403953552,
        3.422854177870249e-8,
        0,
        0,
        0,
        0,
        1
      ]
    },
    {
      "children": [
        9
      ]
    },
    {
      "children": [
        10
      ],
      "matrix": [
        1,
        0,
        0,
        0,
        0,
        3.422854177870249e-8,
        -0.9999999403953552,
        0,
        0,
        0.9999999403953552,
        3.422854177870249e-8,
        0,
        0,
        0,
        0,
        1
      ]
    }
  ],
  "meshes": [
    {
      "primitives": [
        {
          "attributes": {
            "NORMAL": 0,
            "POSITION": 1,
            "TANGENT": 2,
            "TEXCOORD_0": 3
          },
          "material": 0,
          "mode": 4,
          "indices": 4
        }
      ]
    },
    {
      "primitives": [
        {
          "attributes": {
            "NORMAL": 5,
            "POSITION": 6,
            "TANGENT": 7,
            "TEXCOORD_0": 8
          },
          "material": 1,
          "mode": 4,
          "indices": 9
        }
      ]
    },
    {
      "primitives": [
        {
          "attributes": {
            "NORMAL": 10,
            "POSITION": 11,
            "TANGENT": 12,
            "TEXCOORD_0": 13
          },
          "material": 2,
          "mode": 4,
          "indices": 14
        }
      ]
    },
    {
      "primitives": [
        {
          "attributes": {
            "NORMAL": 15,
            "POSITION": 16,
            "TANGENT": 17,
            "TEXCOORD_0": 18
          },
          "material": 3,
          "mode": 4,
          "indices": 19
        }
      ]
    }
  ],
  "materials": [
    {
      "pbrMetallicRoughness": {
        "baseColorFactor": [
          0.5019607843137255,
          0.5019607843137255,
          0.5019607843137255,
          0.48651516076290247
        ],
        "metallicFactor": 0.5168181910659327,
        "roughnessFactor": 0.8225757483280066
      },
      "emissiveFactor": [
        0,
        0,
        0
      ],
      "alphaMode": "BLEND",
      "doubleSided": true
    },
    {
      "pbrMetallicRoughness": {
        "baseColorFactor": [
          0.23921568627450981,
          0.23921568627450981,
          0.23921568627450981,
          1
        ],
        "metallicFactor": 0.8319697062,
        "roughnessFactor": 0.16196968769999998
      },
      "emissiveFactor": [
        0,
        0,
        0
      ],
      "alphaMode": "OPAQUE",
      "doubleSided": true
    },
    {
      "pbrMetallicRoughness": {
        "baseColorFactor": [
          1,
          1,
          1,
          1
        ],
        "metallicFactor": 0.36530303955078125,
        "roughnessFactor": 0.21378788803562973,
        "baseColorTexture": {
          "index": 0,
          "texCoord": 0
        },
        "metallicRoughnessTexture": {
          "index": 1,
          "texCoord": 0
        }
      },
      "emissiveFactor": [
        0.8666666666666667,
        0.8666666666666667,
        0.8666666666666667
      ],
      "alphaMode": "OPAQUE",
      "doubleSided": true,
      "normalTexture": {
        "index": 2,
        "texCoord": 0,
        "scale": 1
      },
      "emissiveTexture": {
        "index": 3,
        "texCoord": 0
      }
    },
    {
      "pbrMetallicRoughness": {
        "baseColorFactor": [
          1,
          1,
          1,
          0.1592424335
        ],
        "metallicFactor": 0.7168181911,
        "roughnessFactor": 0.0953030211
      },
      "emissiveFactor": [
        0,
        0,
        0
      ],
      "alphaMode": "BLEND",
      "doubleSided": true
    }
  ],
  "textures": [
    {
      "sampler": 0,
      "source": 0
    },
    {
      "sampler": 1,
      "source": 1
    },
    {
      "sampler": 2,
      "source": 2
    },
    {
      "sampler": 3,
      "source": 3
    }
  ],
  "samplers": [
    {
      "magFilter": 9729,
      "minFilter": 9987,
      "wrapS": 10497,
      "wrapT": 10497
    },
    {
      "magFilter": 9729,
      "minFilter": 9987,
      "wrapS": 10497,
      "wrapT": 10497
    },
    {
      "magFilter": 9729,
      "minFilter": 9987,
      "wrapS": 10497,
      "wrapT": 10497
    },
    {
      "magFilter": 9729,
      "minFilter": 9987,
      "wrapS": 10497,
      "wrapT": 10497
    }
  ],
  "images": [
    {
      "uri": "base_1.png",
      "mimeType": "image/png"
    },
    {
      "uri": "metallicRoughness_1.png",
      "mimeType": "image/png"
    },
    {
      "uri": "normal_1.png",
      "mimeType": "image/png"
    },
    {
      "uri": "emissive_1.png",
      "mimeType": "image/png"
    }
  ]
}