{
    "asset" : {
        "generator" : "Khronos glTF Blender I/O v1.2.75",
        "version" : "2.0"
    },
    "scene" : 0,
    "scenes" : [
        {
            "name" : "Scene",
            "nodes" : [
                0
            ]
        }
    ],
    "nodes" : [
        {
            "mesh" : 0,
            "name" : "main"
        }
    ],
    "meshes" : [
        {
            "name" : "Cube.001",
            "primitives" : [
                {
                    "attributes" : {
                        "POSITION" : 0,
                        "NORMAL" : 1,
                        "TEXCOORD_0" : 2
                    },
                    "indices" : 3
                }
            ]
        }
    ],
    "accessors" : [
        {
            "bufferView" : 0,
            "componentType" : 5126,
            "count" : 1698,
            "max" : [
                2.903329610824585,
                0.7671685814857483,
                1
            ],
            "min" : [
                -3.0573689937591553,
                -0.45558714866638184,
                -1
            ],
            "type" : "VEC3"
        },
        {
            "bufferView" : 1,
            "componentType" : 5126,
            "count" : 1698,
            "type" : "VEC3"
        },
        {
            "bufferView" : 2,
            "componentType" : 5126,
            "count" : 1698,
            "type" : "VEC2"
        },
        {
            "bufferView" : 3,
            "componentType" : 5123,
            "count" : 3138,
            "type" : "SCALAR"
        }
    ],
    "bufferViews" : [
        {
            "buffer" : 0,
            "byteLength" : 20376,
            "byteOffset" : 0
        },
        {
            "buffer" : 0,
            "byteLength" : 20376,
            "byteOffset" : 20376
        },
        {
            "buffer" : 0,
            "byteLength" : 13584,
            "byteOffset" : 40752
        },
        {
            "buffer" : 0,
            "byteLength" : 6276,
            "byteOffset" : 54336
        }
    ],
    "buffers" : [
        {
            "byteLength" : 60612,
            "uri" : "data:application/octet-stream;base64,"
        }
    ]
}
