{
    "asset" : {
        "generator" : "Khronos glTF Blender I/O v1.2.75",
        "version" : "2.0"
    },
    "scene" : 0,
    "scenes" : [
        {
            "name" : "Scene",
            "nodes" : [
                0,
                1,
                2
            ]
        }
    ],
    "nodes" : [
        {
            "mesh" : 0,
            "name" : "polySurface42_blinn4_0",
            "translation" : [
                -2.817721128463745,
                0,
                8.215045928955078
            ]
        },
        {
            "mesh" : 1,
            "name" : "polySurface65_solidShader2_0",
            "translation" : [
                -2.817721128463745,
                0,
                8.215045928955078
            ]
        },
        {
            "mesh" : 2,
            "name" : "polySurface24_lambert11_0",
            "translation" : [
                -2.817721128463745,
                0,
                8.215045928955078
            ]
        }
    ],
    "materials" : [
        {
            "alphaMode" : "BLEND",
            "doubleSided" : true,
            "emissiveFactor" : [
                0,
                0,
                0
            ],
            "name" : "blinn4",
            "pbrMetallicRoughness" : {
                "baseColorFactor" : [
                    0.5,
                    0.5,
                    0.5,
                    0.4865151643753052
                ],
                "metallicFactor" : 0.5168181657791138,
                "roughnessFactor" : 0.8225757479667664
            }
        },
        {
            "doubleSided" : true,
            "emissiveFactor" : [
                1,
                1,
                1
            ],
            "emissiveTexture" : {
                "index" : 0,
                "texCoord" : 0
            },
            "name" : "solidShader2",
            "normalTexture" : {
                "index" : 1,
                "texCoord" : 0
            },
            "pbrMetallicRoughness" : {
                "baseColorTexture" : {
                    "index" : 2,
                    "texCoord" : 0
                },
                "metallicRoughnessTexture" : {
                    "index" : 3,
                    "texCoord" : 0
                }
            }
        },
        {
            "alphaMode" : "BLEND",
            "doubleSided" : true,
            "emissiveFactor" : [
                0,
                0,
                0
            ],
            "name" : "lambert11",
            "pbrMetallicRoughness" : {
                "baseColorFactor" : [
                    1,
                    1,
                    1,
                    0.1592424362897873
                ],
                "metallicFactor" : 0.7168182134628296,
                "roughnessFactor" : 0.0953030213713646
            }
        }
    ],
    "meshes" : [
        {
            "name" : "polySurface42_blinn4_0",
            "primitives" : [
                {
                    "attributes" : {
                        "POSITION" : 0,
                        "NORMAL" : 1,
                        "TANGENT" : 2,
                        "TEXCOORD_0" : 3
                    },
                    "indices" : 4,
                    "material" : 0
                }
            ]
        },
        {
            "name" : "polySurface65_solidShader2_0",
            "primitives" : [
                {
                    "attributes" : {
                        "POSITION" : 5,
                        "NORMAL" : 6,
                        "TANGENT" : 7,
                        "TEXCOORD_0" : 8
                    },
                    "indices" : 9,
                    "material" : 1
                }
            ]
        },
        {
            "name" : "polySurface24_lambert11_0",
            "primitives" : [
                {
                    "attributes" : {
                        "POSITION" : 10,
                        "NORMAL" : 11,
                        "TANGENT" : 12,
                        "TEXCOORD_0" : 13
                    },
                    "indices" : 14,
                    "material" : 2
                }
            ]
        }
    ],
    "textures" : [
        {
            "source" : 0
        },
        {
            "source" : 1
        },
        {
            "source" : 2
        },
        {
            "source" : 3
        }
    ],
    "images" : [
        {
            "bufferView" : 10,
            "mimeType" : "image/png",
            "name" : "solidShader2_emissive.png"
        },
        {
            "bufferView" : 11,
            "mimeType" : "image/png",
            "name" : "solidShader2_normal.png"
        },
        {
            "bufferView" : 12,
            "mimeType" : "image/png",
            "name" : "solidShader2_baseColor.png"
        },
        {
            "bufferView" : 13,
            "mimeType" : "image/png",
            "name" : "solidShader2_metallicRoughness.png"
        }
    ],
    "accessors" : [
        {
            "bufferView" : 0,
            "componentType" : 5126,
            "count" : 16,
            "max" : [
                3.6251299381256104,
                2.0499672889709473,
                -7.4108195304870605
            ],
            "min" : [
                2.9634952545166016,
                1.4879035949707031,
                -7.870338439941406
            ],
            "type" : "VEC3"
        },
        {
            "bufferView" : 1,
            "componentType" : 5126,
            "count" : 16,
            "type" : "VEC3"
        },
        {
            "bufferView" : 2,
            "componentType" : 5126,
            "count" : 16,
            "type" : "VEC4"
        },
        {
            "bufferView" : 3,
            "componentType" : 5126,
            "count" : 16,
            "type" : "VEC2"
        },
        {
            "bufferView" : 4,
            "componentType" : 5123,
            "count" : 24,
            "type" : "SCALAR"
        },
        {
            "bufferView" : 5,
            "componentType" : 5126,
            "count" : 1196,
            "max" : [
                3.7381839752197266,
                4.179409980773926,
                -6.892394065856934
            ],
            "min" : [
                1.8757400512695312,
                -0.005762937944382429,
                -9.181304931640625
            ],
            "type" : "VEC3"
        },
        {
            "bufferView" : 6,
            "componentType" : 5126,
            "count" : 1196,
            "type" : "VEC3"
        },
        {
            "bufferView" : 7,
            "componentType" : 5126,
            "count" : 1196,
            "type" : "VEC4"
        },
        {
            "bufferView" : 8,
            "componentType" : 5126,
            "count" : 1196,
            "type" : "VEC2"
        },
        {
            "bufferView" : 9,
            "componentType" : 5123,
            "count" : 1479,
            "type" : "SCALAR"
        },
        {
            "bufferView" : 14,
            "componentType" : 5126,
            "count" : 20,
            "max" : [
                3.706902503967285,
                3.6457457542419434,
                -7.35476541519165
            ],
            "min" : [
                1.9101402759552002,
                1.620924472808838,
                -9.145727157592773
            ],
            "type" : "VEC3"
        },
        {
            "bufferView" : 15,
            "componentType" : 5126,
            "count" : 20,
            "type" : "VEC3"
        },
        {
            "bufferView" : 16,
            "componentType" : 5126,
            "count" : 20,
            "type" : "VEC4"
        },
        {
            "bufferView" : 17,
            "componentType" : 5126,
            "count" : 20,
            "type" : "VEC2"
        },
        {
            "bufferView" : 18,
            "componentType" : 5123,
            "count" : 24,
            "type" : "SCALAR"
        }
    ],
    "bufferViews" : [
        {
            "buffer" : 0,
            "byteLength" : 192,
            "byteOffset" : 0
        },
        {
            "buffer" : 0,
            "byteLength" : 192,
            "byteOffset" : 192
        },
        {
            "buffer" : 0,
            "byteLength" : 256,
            "byteOffset" : 384
        },
        {
            "buffer" : 0,
            "byteLength" : 128,
            "byteOffset" : 640
        },
        {
            "buffer" : 0,
            "byteLength" : 48,
            "byteOffset" : 768
        },
        {
            "buffer" : 0,
            "byteLength" : 14352,
            "byteOffset" : 816
        },
        {
            "buffer" : 0,
            "byteLength" : 14352,
            "byteOffset" : 15168
        },
        {
            "buffer" : 0,
            "byteLength" : 19136,
            "byteOffset" : 29520
        },
        {
            "buffer" : 0,
            "byteLength" : 9568,
            "byteOffset" : 48656
        },
        {
            "buffer" : 0,
            "byteLength" : 2958,
            "byteOffset" : 58224
        },
        {
            "buffer" : 0,
            "byteLength" : 40748,
            "byteOffset" : 61184
        },
        {
            "buffer" : 0,
            "byteLength" : 478690,
            "byteOffset" : 101932
        },
        {
            "buffer" : 0,
            "byteLength" : 1100378,
            "byteOffset" : 580624
        },
        {
            "buffer" : 0,
            "byteLength" : 1082780,
            "byteOffset" : 1681004
        },
        {
            "buffer" : 0,
            "byteLength" : 240,
            "byteOffset" : 2763784
        },
        {
            "buffer" : 0,
            "byteLength" : 240,
            "byteOffset" : 2764024
        },
        {
            "buffer" : 0,
            "byteLength" : 320,
            "byteOffset" : 2764264
        },
        {
            "buffer" : 0,
            "byteLength" : 160,
            "byteOffset" : 2764584
        },
        {
            "buffer" : 0,
            "byteLength" : 48,
            "byteOffset" : 2764744
        }
    ],
    "buffers" : [
        {
            "byteLength" : 2764792,
            "uri" : "data:application/octet-stream;base64,"
        }
    ]
}
